<svg width="131" height="44" viewBox="0 0 131 44" fill="none" xmlns="http://www.w3.org/2000/svg">
<path fill-rule="evenodd" clip-rule="evenodd" d="M0 14.5881C0 12.2563 1.88875 10.3659 4.21864 10.3659H12.2119C18.0979 10.3659 22.8695 15.1415 22.8695 21.0326V22.9707C22.8695 28.7847 18.2285 33.49 12.4888 33.634C13.5568 32.0475 14.2471 30.2036 14.4834 28.2569C14.8232 25.4576 14.2023 22.6267 12.731 20.2658C11.2597 17.905 9.03305 16.1671 6.44602 15.3604C4.33666 14.7026 2.09886 14.6985 0 15.3312V14.5881ZM9.0783 33.5216C9.06602 33.5333 9.05372 33.5451 9.04138 33.5569L7.31855 33.5111C7.81406 32.5562 8.14052 31.5073 8.27316 30.4144C8.52395 28.3482 8.06563 26.2582 6.97955 24.5156C5.89345 22.7729 4.24975 21.49 2.34006 20.8945C1.57512 20.6559 0.787299 20.5339 0 20.5268V18.2507C1.81414 17.5193 3.81159 17.4346 5.67807 18.0166C7.66412 18.636 9.37352 19.9701 10.503 21.7825C11.6326 23.5949 12.1092 25.7682 11.8484 27.9173C11.5876 30.0662 10.6062 32.0516 9.0783 33.5216ZM0 22.5733V31.3689C0 32.4529 0.862662 33.3396 1.94525 33.3682L5.02905 33.4502C5.73041 32.4996 6.18207 31.3662 6.32801 30.1638C6.52054 28.5776 6.1687 26.9731 5.3349 25.6351C4.50109 24.2973 3.23925 23.3124 1.77317 22.8553C1.19347 22.6744 0.596652 22.5809 0 22.5733Z" fill="url(#paint0_linear_1302_103)"/>
<path d="M28.5824 27.04V31.2767C28.5824 31.7589 28.3644 32 27.9285 32H24.8656C24.4066 32 24.1772 31.7589 24.1772 31.2767V27.0744C24.1772 26.6151 24.4066 26.3856 24.8656 26.3856H27.9285C28.3644 26.3856 28.5824 26.6038 28.5824 27.04Z" fill="black"/>
<path d="M36.8802 28.2111H40.6314C41.3655 28.2111 41.8817 28.0618 42.1801 27.7633C42.5012 27.4418 42.6619 26.9138 42.6619 26.1789V15.6733C42.6619 14.9385 42.5012 14.4219 42.1801 14.1233C41.8817 13.8019 41.3655 13.6411 40.6314 13.6411H36.8802C36.6277 13.6411 36.5016 13.7674 36.5016 14.02V27.8322C36.5016 28.0849 36.6277 28.2111 36.8802 28.2111ZM32.1309 31.2767V10.5756C32.1309 10.0933 32.3718 9.85223 32.8536 9.85223H41.3541C43.1437 9.85223 44.5317 10.3459 45.5184 11.3333C46.5278 12.2978 47.0327 13.6756 47.0327 15.4667V26.3856C47.0327 28.1767 46.5278 29.566 45.5184 30.5533C44.5317 31.5178 43.1437 32 41.3541 32H32.8536C32.3718 32 32.1309 31.7589 32.1309 31.2767ZM63.7494 32H56.1436C54.3309 32 52.9314 31.5178 51.9449 30.5533C50.9582 29.5889 50.4651 28.1996 50.4651 26.3856V20.0478C50.4651 18.2337 50.9582 16.8445 51.9449 15.88C52.9314 14.9156 54.3309 14.4333 56.1436 14.4333H58.8624C60.6749 14.4333 62.0744 14.9156 63.0611 15.88C64.0476 16.8445 64.5409 18.2337 64.5409 20.0478V24.4222C64.5409 24.9045 64.3 25.1456 63.8182 25.1456H55.18C54.9047 25.1456 54.767 25.2718 54.767 25.5245V26.2822C54.767 26.994 54.916 27.5107 55.2144 27.8322C55.5355 28.1307 56.0632 28.28 56.7975 28.28H63.7494C64.2312 28.28 64.4721 28.5327 64.4721 29.0378V31.3111C64.4721 31.5638 64.4146 31.7473 64.3 31.8622C64.2081 31.954 64.0247 32 63.7494 32ZM55.18 22.2178H59.8605C60.1127 22.2178 60.239 22.0915 60.239 21.8389V20.1856C60.239 19.4507 60.0898 18.9341 59.7916 18.6356C59.4932 18.3371 58.977 18.1878 58.2429 18.1878H56.7975C56.0632 18.1878 55.547 18.3371 55.2488 18.6356C54.9504 18.9341 54.8014 19.4507 54.8014 20.1856V21.8389C54.8014 22.0915 54.9275 22.2178 55.18 22.2178ZM67.0579 14.4333H70.0864C70.5454 14.4333 70.8207 14.6745 70.9124 15.1567L73.8721 28.1078H74.113L77.0039 15.1567C77.0958 14.6745 77.3825 14.4333 77.8643 14.4333H80.8928C81.3746 14.4333 81.5467 14.6745 81.4091 15.1567L77.0727 31.2422C76.981 31.7473 76.6713 32 76.1435 32H71.7728C71.291 32 70.9812 31.7473 70.8436 31.2422L66.5417 15.1567C66.404 14.6745 66.5761 14.4333 67.0579 14.4333Z" fill="#121212"/>
<path d="M83.1564 14.4334H86.1849C86.6438 14.4334 86.9192 14.6745 87.0109 15.1567L89.9706 28.1078H90.2115L93.1024 15.1567C93.1943 14.6745 93.4809 14.4334 93.9627 14.4334H96.9913C97.4731 14.4334 97.6452 14.6745 97.5075 15.1567L93.1712 31.2422C93.0795 31.7474 92.7698 32 92.242 32H87.8712C87.3894 32 87.0797 31.7474 86.942 31.2422L82.6401 15.1567C82.5025 14.6745 82.6745 14.4334 83.1564 14.4334ZM100.184 11.4711V8.47447C100.184 8.01521 100.413 7.78558 100.872 7.78558H103.867C104.326 7.78558 104.555 8.00374 104.555 8.44003V11.4711C104.555 11.9304 104.326 12.16 103.867 12.16H100.872C100.413 12.16 100.184 11.9304 100.184 11.4711ZM100.184 31.2767V15.1567C100.184 14.6745 100.413 14.4334 100.872 14.4334H103.832C104.314 14.4334 104.555 14.6745 104.555 15.1567V31.2767C104.555 31.5751 104.498 31.7705 104.383 31.8623C104.291 31.954 104.119 32 103.867 32H100.907C100.425 32 100.184 31.7589 100.184 31.2767ZM108.894 18.2223H107.517C107.242 18.2223 107.047 18.1763 106.932 18.0845C106.84 17.9926 106.794 17.8089 106.794 17.5334V15.1567C106.794 14.6745 107.035 14.4334 107.517 14.4334H108.894C109.146 14.4334 109.272 14.3071 109.272 14.0545V10.7823C109.272 10.3 109.525 10.0589 110.029 10.0589H112.92C113.402 10.0589 113.643 10.3 113.643 10.7823V14.0545C113.643 14.3071 113.781 14.4334 114.056 14.4334H116.74C117.222 14.4334 117.463 14.6745 117.463 15.1567V17.5334C117.463 17.786 117.406 17.9696 117.291 18.0845C117.199 18.1763 117.016 18.2223 116.74 18.2223H114.056C113.781 18.2223 113.643 18.3485 113.643 18.6011V26.2134C113.643 26.9251 113.803 27.4418 114.125 27.7634C114.446 28.0618 114.974 28.2111 115.708 28.2111H117.084C117.566 28.2111 117.807 28.4522 117.807 28.9345V31.3111C117.807 31.5638 117.75 31.7474 117.635 31.8623C117.543 31.954 117.36 32 117.084 32H114.985C113.173 32 111.762 31.5178 110.752 30.5534C109.766 29.5889 109.272 28.2111 109.272 26.42V18.6011C109.272 18.3485 109.146 18.2223 108.894 18.2223ZM121.026 18.2223H119.65C119.375 18.2223 119.179 18.1763 119.065 18.0845C118.973 17.9926 118.927 17.8089 118.927 17.5334V15.1567C118.927 14.6745 119.168 14.4334 119.65 14.4334H121.026C121.279 14.4334 121.405 14.3071 121.405 14.0545V10.7823C121.405 10.3 121.657 10.0589 122.162 10.0589H125.053C125.535 10.0589 125.776 10.3 125.776 10.7823V14.0545C125.776 14.3071 125.913 14.4334 126.189 14.4334H128.873C129.355 14.4334 129.596 14.6745 129.596 15.1567V17.5334C129.596 17.786 129.538 17.9696 129.424 18.0845C129.332 18.1763 129.148 18.2223 128.873 18.2223H126.189C125.913 18.2223 125.776 18.3485 125.776 18.6011V26.2134C125.776 26.9251 125.936 27.4418 126.258 27.7634C126.579 28.0618 127.106 28.2111 127.841 28.2111H129.217C129.699 28.2111 129.94 28.4522 129.94 28.9345V31.3111C129.94 31.5638 129.882 31.7474 129.768 31.8623C129.676 31.954 129.493 32 129.217 32H127.118C125.305 32 123.894 31.5178 122.885 30.5534C121.898 29.5889 121.405 28.2111 121.405 26.42V18.6011C121.405 18.3485 121.279 18.2223 121.026 18.2223Z" fill="#A36400"/>
<defs>
<linearGradient id="paint0_linear_1302_103" x1="11.3237" y1="23.7778" x2="27.1505" y2="10.9313" gradientUnits="userSpaceOnUse">
<stop stop-color="#121212"/>
<stop offset="0.963599" stop-color="#A36200"/>
</linearGradient>
</defs>
</svg>
