<svg viewBox="0 0 590 198" fill="none" xmlns="http://www.w3.org/2000/svg">
<path fill-rule="evenodd" clip-rule="evenodd" d="M0 65.6465C0 55.1531 8.50659 46.6465 19 46.6465H55C81.5097 46.6465 103 68.1368 103 94.6465V103.368C103 129.531 82.0978 150.705 56.2471 151.353C61.0575 144.214 64.1665 135.916 65.2307 127.156C66.7608 114.559 63.9646 101.82 57.3381 91.196C50.7116 80.5725 40.6832 72.7519 29.0317 69.1216C19.5315 66.1615 9.45286 66.1433 0 68.9905V65.6465ZM40.887 150.847C40.8317 150.9 40.7763 150.953 40.7207 151.006L32.9614 150.8C35.1931 146.503 36.6634 141.783 37.2608 136.865C38.3903 127.567 36.3261 118.162 31.4346 110.32C26.543 102.478 19.1401 96.7049 10.5392 94.025C7.09405 92.9516 3.54585 92.4023 0 92.3703V82.1281C8.17057 78.8366 17.1667 78.4554 25.573 81.0747C34.5178 83.8616 42.2166 89.8655 47.3038 98.0212C52.391 106.177 54.5376 115.957 53.363 125.627C52.1883 135.297 47.7683 144.232 40.887 150.847ZM0 101.579V141.16C0 146.038 3.88527 150.027 8.76103 150.157L22.6499 150.526C25.8087 146.248 27.8429 141.148 28.5002 135.737C29.3673 128.598 27.7827 121.379 24.0274 115.358C20.2721 109.338 14.589 104.906 7.98604 102.849C5.37516 102.035 2.68721 101.614 0 101.579Z" fill="white"/>
<path d="M128.73 121.68V140.745C128.73 142.915 127.748 144 125.785 144H111.99C109.923 144 108.89 142.915 108.89 140.745V121.835C108.89 119.768 109.923 118.735 111.99 118.735H125.785C127.748 118.735 128.73 119.717 128.73 121.68ZM166.101 126.95H182.996C186.302 126.95 188.627 126.278 189.971 124.935C191.417 123.488 192.141 121.112 192.141 117.805V70.53C192.141 67.2233 191.417 64.8983 189.971 63.555C188.627 62.1083 186.302 61.385 182.996 61.385H166.101C164.964 61.385 164.396 61.9533 164.396 63.09V125.245C164.396 126.382 164.964 126.95 166.101 126.95ZM144.711 140.745V47.59C144.711 45.42 145.796 44.335 147.966 44.335H186.251C194.311 44.335 200.562 46.5567 205.006 51C209.552 55.34 211.826 61.54 211.826 69.6V118.735C211.826 126.795 209.552 133.047 205.006 137.49C200.562 141.83 194.311 144 186.251 144H147.966C145.796 144 144.711 142.915 144.711 140.745ZM287.115 144H252.86C244.696 144 238.393 141.83 233.95 137.49C229.506 133.15 227.285 126.898 227.285 118.735V90.215C227.285 82.0517 229.506 75.8 233.95 71.46C238.393 67.12 244.696 64.95 252.86 64.95H265.105C273.268 64.95 279.571 67.12 284.015 71.46C288.458 75.8 290.68 82.0517 290.68 90.215V109.9C290.68 112.07 289.595 113.155 287.425 113.155H248.52C247.28 113.155 246.66 113.723 246.66 114.86V118.27C246.66 121.473 247.331 123.798 248.675 125.245C250.121 126.588 252.498 127.26 255.805 127.26H287.115C289.285 127.26 290.37 128.397 290.37 130.67V140.9C290.37 142.037 290.111 142.863 289.595 143.38C289.181 143.793 288.355 144 287.115 144ZM248.52 99.98H269.6C270.736 99.98 271.305 99.4117 271.305 98.275V90.835C271.305 87.5283 270.633 85.2033 269.29 83.86C267.946 82.5167 265.621 81.845 262.315 81.845H255.805C252.498 81.845 250.173 82.5167 248.83 83.86C247.486 85.2033 246.815 87.5283 246.815 90.835V98.275C246.815 99.4117 247.383 99.98 248.52 99.98ZM302.016 64.95H315.656C317.723 64.95 318.963 66.035 319.376 68.205L332.706 126.485H333.791L346.811 68.205C347.225 66.035 348.516 64.95 350.686 64.95H364.326C366.496 64.95 367.271 66.035 366.651 68.205L347.121 140.59C346.708 142.863 345.313 144 342.936 144H323.251C321.081 144 319.686 142.863 319.066 140.59L299.691 68.205C299.071 66.035 299.846 64.95 302.016 64.95Z" fill="white"/>
<path d="M374.521 64.95H388.161C390.228 64.95 391.468 66.035 391.881 68.205L405.211 126.485H406.296L419.316 68.205C419.73 66.035 421.021 64.95 423.191 64.95H436.831C439.001 64.95 439.776 66.035 439.156 68.205L419.626 140.59C419.213 142.863 417.818 144 415.441 144H395.756C393.586 144 392.191 142.863 391.571 140.59L372.196 68.205C371.576 66.035 372.351 64.95 374.521 64.95ZM451.211 51.62V38.135C451.211 36.0683 452.244 35.035 454.311 35.035H467.796C469.863 35.035 470.896 36.0167 470.896 37.98V51.62C470.896 53.6867 469.863 54.72 467.796 54.72H454.311C452.244 54.72 451.211 53.6867 451.211 51.62ZM451.211 140.745V68.205C451.211 66.035 452.244 64.95 454.311 64.95H467.641C469.811 64.95 470.896 66.035 470.896 68.205V140.745C470.896 142.088 470.638 142.967 470.121 143.38C469.708 143.793 468.933 144 467.796 144H454.466C452.296 144 451.211 142.915 451.211 140.745ZM490.437 82H484.237C482.997 82 482.119 81.7933 481.602 81.38C481.189 80.9667 480.982 80.14 480.982 78.9V68.205C480.982 66.035 482.067 64.95 484.237 64.95H490.437C491.574 64.95 492.142 64.3817 492.142 63.245V48.52C492.142 46.35 493.279 45.265 495.552 45.265H508.572C510.742 45.265 511.827 46.35 511.827 48.52V63.245C511.827 64.3817 512.447 64.95 513.687 64.95H525.777C527.947 64.95 529.032 66.035 529.032 68.205V78.9C529.032 80.0367 528.774 80.8633 528.257 81.38C527.844 81.7933 527.017 82 525.777 82H513.687C512.447 82 511.827 82.5683 511.827 83.705V117.96C511.827 121.163 512.55 123.488 513.997 124.935C515.444 126.278 517.82 126.95 521.127 126.95H527.327C529.497 126.95 530.582 128.035 530.582 130.205V140.9C530.582 142.037 530.324 142.863 529.807 143.38C529.394 143.793 528.567 144 527.327 144H517.872C509.709 144 503.354 141.83 498.807 137.49C494.364 133.15 492.142 126.95 492.142 118.89V83.705C492.142 82.5683 491.574 82 490.437 82ZM545.081 82H538.881C537.641 82 536.762 81.7933 536.246 81.38C535.832 80.9667 535.626 80.14 535.626 78.9V68.205C535.626 66.035 536.711 64.95 538.881 64.95H545.081C546.217 64.95 546.786 64.3817 546.786 63.245V48.52C546.786 46.35 547.922 45.265 550.196 45.265H563.216C565.386 45.265 566.471 46.35 566.471 48.52V63.245C566.471 64.3817 567.091 64.95 568.331 64.95H580.421C582.591 64.95 583.676 66.035 583.676 68.205V78.9C583.676 80.0367 583.417 80.8633 582.901 81.38C582.487 81.7933 581.661 82 580.421 82H568.331C567.091 82 566.471 82.5683 566.471 83.705V117.96C566.471 121.163 567.194 123.488 568.641 124.935C570.087 126.278 572.464 126.95 575.771 126.95H581.971C584.141 126.95 585.226 128.035 585.226 130.205V140.9C585.226 142.037 584.967 142.863 584.451 143.38C584.037 143.793 583.211 144 581.971 144H572.516C564.352 144 557.997 141.83 553.451 137.49C549.007 133.15 546.786 126.95 546.786 118.89V83.705C546.786 82.5683 546.217 82 545.081 82Z" fill="#A36400"/>
</svg>
